<svg id="Capa_1" enable-background="new 0 0 488.101 488.101" height="512" viewBox="0 0 488.101 488.101" width="512" xmlns="http://www.w3.org/2000/svg"><path d="m121.388 117.325-37.08-85.458c-1.466-3.379 1.011-7.153 4.694-7.153h22.023c.873 0 1.732.223 2.494.649l69.984 39.075c.432.241.975.15 1.303-.221l55.475-62.522c2.005-2.259 5.533-2.259 7.538 0l55.475 62.522c.329.37.871.462 1.303.221l69.984-39.075c.762-.426 1.621-.649 2.494-.649h22.023c3.683 0 6.159 3.774 4.694 7.153l-37.079 85.458v12.628h-243.73z" fill="#fee97d"/><g><path d="m156.331 70.534-12.178-28.066-30.635-17.104c-.762-.426-1.621-.649-2.494-.649h-22.022c-3.683 0-6.159 3.774-4.693 7.153l37.079 85.458 1.596 12.628h243.73v-12.628l7.427-17.117-189.059-9.732c-12.593-.65-23.732-8.376-28.751-19.943z" fill="#fedf30"/></g><path d="m235.078 484.334-231.113-235.615c-5.105-5.204-4.726-13.646.826-18.372l83.024-70.673c2.273-1.935 5.161-2.998 8.147-2.998h296.178c2.986 0 5.874 1.063 8.147 2.998l83.024 70.673c5.551 4.725 5.931 13.167.826 18.372l-231.114 235.615c-4.927 5.023-13.018 5.023-17.945 0z" fill="#99e6fc"/><path d="m71.825 248.719c-5.105-5.204-4.726-13.646.826-18.372l83.024-70.673c2.273-1.935 5.161-2.998 8.147-2.998h-67.86c-2.985 0-5.874 1.063-8.147 2.998l-83.025 70.673c-5.552 4.726-5.931 13.167-.826 18.372l231.114 235.615c4.927 5.023 13.018 5.023 17.945 0l24.958-25.444z" fill="#62dbfb"/><g><path d="m211.061 156.673-61.65 82.42-61.6-79.42c2.28-1.93 5.17-3 8.15-3h25.43z" fill="#01d0fb"/><path d="m162.359 156.772 1.462-.096v-.003h-42.431-25.43c-2.979 0-5.868 1.07-8.148 2.999v.004l26.987 34.793 40.876-34.795c1.899-1.617 4.229-2.614 6.684-2.902z" fill="#01c0fa"/><path d="m400.291 159.673-61.6 79.42-61.65-82.42h89.67 25.43c2.98 0 5.87 1.07 8.15 3z" fill="#01d0fb"/><path d="m487.691 238.943-1.99.15h-147.01l61.6-79.42 83.02 70.67c2.66 2.27 4.13 5.39 4.38 8.6z" fill="#01c0fa"/><path d="m338.691 239.093-94.64 247.01-94.64-247.01z" fill="#01c0fa"/><path d="m261.079 441.659-55.886-56.974 38.858 101.418z" fill="#08a9f1"/><path d="m87.811 159.673 61.6 79.42h-149.01c.21-3.26 1.69-6.44 4.39-8.75z" fill="#01c0fa"/><path d="m487.691 238.943c.27 3.49-.9 7.07-3.55 9.78l-231.12 235.61c-2.47 2.52-5.74 3.77-9 3.76l.03-1.99 94.64-247.01h147.01z" fill="#01d0fb"/><path d="m277.98 458.889-16.901-17.23-17.028 44.444-.03 1.99c3.26.01 6.53-1.24 9-3.76z" fill="#01c0fa"/><path d="m277.041 156.673 61.65 82.42h-189.28l61.65-82.42z" fill="#08a9f1"/></g><g><path d="m366.714 156.676h-245.326c-7.053 0-12.771-5.718-12.771-12.771v-13.809c0-7.053 5.718-12.771 12.771-12.771h245.326c7.053 0 12.771 5.718 12.771 12.771v13.809c0 7.053-5.718 12.771-12.771 12.771z" fill="#fee45a"/><path d="m163.822 143.904v-13.809c0-7.053 5.718-12.771 12.771-12.771h-55.205c-7.053 0-12.771 5.718-12.771 12.771v13.809c0 7.053 5.718 12.771 12.771 12.771h55.205c-7.054.001-12.771-5.717-12.771-12.771z" fill="#fed402"/><path d="m249.029 87.786h-9.956c-7.161 0-12.966-5.805-12.966-12.966v-2.973c0-7.161 5.805-12.966 12.966-12.966h9.956c7.161 0 12.966 5.805 12.966 12.966v2.973c0 7.161-5.805 12.966-12.966 12.966z" fill="#f28cc4"/><g><path d="m298.422 98.144h-3.734c-4.143 0-7.5-3.358-7.5-7.5s3.357-7.5 7.5-7.5h3.734c4.143 0 7.5 3.358 7.5 7.5s-3.358 7.5-7.5 7.5z" fill="#f28cc4"/></g><g><path d="m344.632 98.144h-3.734c-4.143 0-7.5-3.358-7.5-7.5s3.357-7.5 7.5-7.5h3.734c4.143 0 7.5 3.358 7.5 7.5s-3.358 7.5-7.5 7.5z" fill="#f28cc4"/></g><g><path d="m193.414 98.144h-3.734c-4.143 0-7.5-3.358-7.5-7.5s3.357-7.5 7.5-7.5h3.734c4.143 0 7.5 3.358 7.5 7.5s-3.357 7.5-7.5 7.5z" fill="#f28cc4"/></g><g><path d="m147.204 98.144h-3.734c-4.143 0-7.5-3.358-7.5-7.5s3.357-7.5 7.5-7.5h3.734c4.143 0 7.5 3.358 7.5 7.5s-3.357 7.5-7.5 7.5z" fill="#f28cc4"/></g></g><path d="m72.651 230.347 42.148-35.878-26.987-34.793-.007.003-83.014 70.664c-2.7 2.31-4.18 5.49-4.39 8.75h.005 67.86c.214-3.261 1.681-6.445 4.385-8.746z" fill="#08a9f1"/></svg>
